<svg xmlns="http://www.w3.org/2000/svg" data-name="Layer 1" viewBox="0 0 90 112.5" x="0px" y="0px"><title>Halloween</title><path d="M53.06,45.25c1.8-2,1.18-4.15,1.11-6.2a2,2,0,0,0-.15-.42c-1.12-3.93-2.8-5.25-6.16-4.84-4.27.53-6.3,3.6-6.23,6.56a48.16,48.16,0,0,0,.91,8.52c1.11,5.46,2.56,10.91,2.59,16.53,0,4.38-.16,8.79-2.56,12.71a8,8,0,0,1-10.1,3,4.76,4.76,0,0,1-.8-.75,6.27,6.27,0,0,1,1.44-.71c3-.52,4.3-2.69,5-5.24a20.24,20.24,0,0,0-.47-11.82c-1.32-4.08-2.68-8.16-4.19-12.18a24.25,24.25,0,0,1-1.36-13.11,13.65,13.65,0,0,1,2.8-6.1,16.82,16.82,0,0,1,9.6-6.43,11.74,11.74,0,0,1,7.31.57C58.59,28.19,62,33.44,63,40.54a5.42,5.42,0,0,1,0,1.8,13.83,13.83,0,0,1-7.3,10.07c-4.24,2.16-8.74,0-10-4.57a4.8,4.8,0,0,1,1.42-4.75,2.41,2.41,0,0,1,3.14,0C51.17,43.66,52,44.42,53.06,45.25ZM35.86,80.39c3.18-.52,5.37-1.81,6.09-3.91a32.69,32.69,0,0,0,1.58-6.57c.91-7.35-1.18-14.39-2.39-21.53a45.3,45.3,0,0,1-.78-8.54c.08-3.55,3-7,8.21-7.27,3.45-.21,6.34,2.56,6.78,6.55a18.28,18.28,0,0,1-.19,5.4c-.38,1.95-2.15,3.2-3.92,1.15a6.94,6.94,0,0,0-1.75-1.42c-1-.58-1.8-.29-2.1.81-.8,2.86.16,6.43,4.29,6.66a8.21,8.21,0,0,0,2.9-.37c3.67-1.17,7.3-6.4,7-10.25C61.24,36,59.3,31.56,55,28.56a15.39,15.39,0,0,0-5.42-2.66c-7.76-1.54-14.81,4.59-16.27,11.49a18.87,18.87,0,0,0,.46,9.87c1.49,4.51,3.17,9,4.65,13.48C40.61,67.54,41.18,74.19,35.86,80.39Z"/><path d="M30.33,69.93c.43-3.91-.69-7.65-2.25-11.29a9.86,9.86,0,0,0-1.37-2.31,2.59,2.59,0,0,0-3.61-.57c-1.1.75-1.78,2.76-1.17,3.83a2.29,2.29,0,0,0,1.21.88,5,5,0,0,0,1.56.08c2.65,0,3.19.58,2.88,3.23A4.56,4.56,0,0,1,21,67.7a7.7,7.7,0,0,1-5.22-7.46,12.53,12.53,0,0,1,.81-5.75,6.31,6.31,0,0,1,4-3.63A15.44,15.44,0,0,1,25,50a6.39,6.39,0,0,1,6.44,4.76C33,59.35,34.2,64,34.11,68.92a32.35,32.35,0,0,1-.84,5.55c-.16.84-.7,1.67-1.69,1.49s-1.36-1-1.28-2.07C30.4,72.62,30.33,71.34,30.33,69.93Zm-4.41-8h-1.3c-.45,0-.91.05-1.36,0a2.93,2.93,0,0,1-2.75-2c-.63-1.8.34-4.58,2-5.32,2.19-1,4.15-1,5.55,1.25A24.37,24.37,0,0,1,31.73,67l.43,4.8c1.08-5.93,0-11.61-2-17.12-.89-2.46-3-3.56-5.57-3.51S19.41,52,18,54.46a9.2,9.2,0,0,0,0,8.92A5.31,5.31,0,0,0,21,66c1.36.54,2.61.91,3.84,0S26.35,63.69,25.93,62Z"/><path d="M26,31.93c-.16-1.33-.27-2.52-.45-3.69-.13-.85-.43-1.66-1.5-1.65a2.12,2.12,0,0,0-1.86,1.94,10.06,10.06,0,0,0,1,5.28c.55,1.39,1.4,2.66,2,4,1.1,2.55,2.11,5.13,3.14,7.66-1.71,1.16-2.49,1.24-3.42.07a104.61,104.61,0,0,1-6.52-8.64,12.38,12.38,0,0,1-1.42-10A8.53,8.53,0,0,1,23,20.51a4.7,4.7,0,0,1,5.4,1.79,8.27,8.27,0,0,1,2,6.08C30.14,30.81,28.53,32.15,26,31.93Zm1.55-1.42c1.42-1.12,1.42-1.12,1.52-2.13a6.88,6.88,0,0,0-1.31-4.7,4.36,4.36,0,0,0-6.68-1,8.4,8.4,0,0,0-3.11,5.59,13.84,13.84,0,0,0,2.55,10.06c1.17,1.66,2.37,3.3,3.62,4.9a10.74,10.74,0,0,0,1.79,1.38A16.1,16.1,0,0,0,24,38.37a22.84,22.84,0,0,1-3.19-7.68,4.87,4.87,0,0,1,.81-4.09c1.58-2,4-1.77,5,.51A19.84,19.84,0,0,1,27.5,30.51Z"/><path d="M50.77,72.52c-2.22-1.46-2.35-1.8-1.93-4a19.25,19.25,0,0,1,8-12.6,9.48,9.48,0,0,1,8.67-1c2.19.72,3.18,3,3.69,5.13A7.49,7.49,0,0,1,67,67.56a5.72,5.72,0,0,1-2.34,1.3,3.45,3.45,0,0,1-4.22-2.71c-.19-.8-.17-1.66-.41-2.45-.72-2.32-2.34-2.73-4-.95a14.25,14.25,0,0,0-2.19,3.1C52.77,68,51.85,70.18,50.77,72.52Zm0-3.55c.24-.52.5-1,.72-1.56a16,16,0,0,1,3.92-6c2.11-1.92,4.78-1.27,5.79,1.41a8.46,8.46,0,0,1,.52,2.41,2.38,2.38,0,0,0,1.49,2.31,2.46,2.46,0,0,0,2.68-.7,6.92,6.92,0,0,0-.59-10.5,2.81,2.81,0,0,0-1.21-.55c-3.2-.29-6.24.15-8.52,2.64A40.6,40.6,0,0,0,52,63.15,9.37,9.37,0,0,0,50.77,69Z"/><path d="M73.05,35.76A15.83,15.83,0,0,1,68.77,46c-.8.9-1.62,1.77-2.49,2.59-.27.26-.86.52-1.11.39a1.48,1.48,0,0,1-.58-1.09A2.5,2.5,0,0,1,65,46.63,19.29,19.29,0,0,0,67,35.93a5.44,5.44,0,0,0-1.81-4,8.69,8.69,0,0,1-1.81-2.28c-.82-1.48-.45-2.68,1.1-3.3a4.45,4.45,0,0,1,2.61-.19,7.36,7.36,0,0,1,5.26,5.14A26.71,26.71,0,0,1,73.05,35.76Zm-5.85,9.49.44.24c.66-.86,1.36-1.69,2-2.58,2.56-3.83,2.71-7.94,1.14-12.12A6,6,0,0,0,67,27.35a1.81,1.81,0,0,0-2.26.55c-.59.84-.07,1.6.4,2.28a4.47,4.47,0,0,0,1,.87,4.84,4.84,0,0,1,1.9,3.72c.14,2.86.41,5.74-.57,8.54A10.49,10.49,0,0,0,67.21,45.24Z"/><path d="M77.56,51.48l1.25,2.15-.26.31-2-1.49-.24,3.67-2.08,1.41c-.72-1,.24-1.73.35-2.54s.26-1.56.43-2.55l-3.88.78L71,52.7l3.6-1.83-2.18-2h2.51c.93-1.44-.37-3.5,1.32-5.26l.25,4.66.51.05,1.77-4.23c.72,2.38-1,3.78-.88,5.65l1.91.54Z"/><path d="M35.56,15.72l4.12-.81.13.45-3.67,1.7,2.19,2.51-1.72.27-1.71,4.07c-.32-.35-.76-.6-.78-.88a18,18,0,0,1,.17-2.25c.06-.79.09-1.57.14-2.54L31.67,19l-.24-.41,2.13-1.86-1.11-1.62c2.27-.87.41-2.57.87-3.89l2.23-1.37Z"/><path d="M53.81,8.19v4.74l.42.13L56,10.58l.42.23-.89,2.65h4.3c-1.5,1.36-3.17,1-4.63,1.78l1.7,1.62-.15.35-2.48-.93V19.7l-2.45.17.9-4-3.81.58L48.72,16l2.76-1.39L50.34,13l2.51.39.21-5.23Z"/><path d="M56.14,75.52l-1.61-2.14.26-.38,2.41,1.28c1-1.63-.49-3.51.47-5.3,1.66,1.86,1.48,3.85.81,5.87l2.21.82-1.88.86,2,2.73h-1.7l-.84,1.78-.73-2.21c-1.17.44-.55,1.61-1.16,2.51-.27-.28-.73-.55-.7-.76.15-1,.42-2.05.64-3-1.57-1.32-2.84,1-4.45.09C52.93,76.23,54.73,76.63,56.14,75.52Z"/><path d="M17.78,44.53l-1.41,1.21c.06,1.17,1.36,2.62-.8,3.33-.35.12-.36,1.26-.61,2.21-1.3-1.5,0-3.21-1-4.5l-3.74,1c.4-1.72,2.09-1.29,2.7-2.43L11.69,43.4l2.45.78c.65-2.22-.13-4.44-.05-6.93,2.67,2,1.06,4.76,1.88,7Z"/></svg>